<svg viewBox="0 0 20 28" version="1.1" xmlns="http://www.w3.org/2000/svg" xmlns:xlink="http://www.w3.org/1999/xlink"> <g id="Page-1" stroke="none" stroke-width="1" fill="none" fill-rule="evenodd"> <g id="Edit-profile---Full-Copy" transform="translate(-63.000000, -100.000000)"> <g id="Logo-Copy" transform="translate(64.000000, 101.000000)"> <polygon id="Fill-1" fill="#FF9100" points="8.85909661 5.22906421 1.99253038 5.18768541 5.36450487 26.491012 6.10020839 26.491012 12.8441574 26.491012 13.5798609 26.491012 16.9518354 5.18768541"></polygon> <polygon id="Fill-2" fill="#FFDD00" points="8.85909661 5.22906421 1.99253038 5.18768541 5.36450487 26.491012 6.10020839 26.491012 11.1275158 26.491012 11.8632193 26.491012 15.2351938 5.18768541"></polygon> <polygon id="Fill-3" fill="#FFFFFF" points="0.0306543135 5.18769769 17.7488475 5.18769769 17.7488475 3.22312578 0.0306543135 3.22312578"></polygon> <polygon id="Stroke-4" stroke="#000000" stroke-width="0.919629406" points="0.0306543135 5.18769769 17.7488475 5.18769769 17.7488475 3.22312578 0.0306543135 3.22312578"></polygon> <polygon id="Fill-6" fill="#FFFFFF" points="14.3155644 0.030696436 10.0852692 0.030696436 7.57161544 0.030696436 3.34132018 0.030696436 2.05383901 2.9775543 7.57161544 2.9775543 10.0852692 2.9775543 15.6030456 2.9775543"></polygon> <g id="Group-11" transform="translate(0.735704, 0.000000)" stroke-width="0.919629406"> <polygon id="Stroke-7" stroke="#050505" points="13.5798609 0.030696436 9.34956563 0.030696436 6.83591192 0.030696436 2.60561665 0.030696436 1.31813548 2.9775543 6.83591192 2.9775543 9.34956563 2.9775543 14.8673421 2.9775543"></polygon> <polygon id="Stroke-9" stroke="#000000" points="8.12339309 5.22906421 0.0306543135 5.18768541 3.4026288 26.491012 4.13833233 26.491012 12.1084538 26.491012 12.8441574 26.491012 16.2161319 5.18768541"></polygon> </g> <polygon id="Fill-12" fill="#FFFFFF" points="17.1970699 11.2041992 9.11898388 11.2041992 8.53790071 11.2041992 0.459814703 11.2041992 1.97082713 19.6764155 8.8284423 19.6025599 15.6860575 19.6764155"></polygon> <polygon id="Stroke-13" stroke="#000000" stroke-width="0.919629406" points="17.1970699 11.2041992 9.11898388 11.2041992 8.53790071 11.2041992 0.459814703 11.2041992 1.97082713 19.6764155 8.8284423 19.6025599 15.6860575 19.6764155"></polygon> </g> </g> </g></svg>