<svg viewBox="0 -13 434.229 434" fill="currentColor" xmlns="http://www.w3.org/2000/svg">
    <path d="m347.046875 327.875c-30.578125 0-55.457031-24.878906-55.457031-55.457031v-63.746094c0-30.578125 24.878906-55.453125 55.457031-55.453125s55.453125 24.875 55.453125 55.453125v63.746094c0 30.578125-24.878906 55.457031-55.453125 55.457031zm0-160.667969c-22.863281 0-41.464844 18.601563-41.464844 41.464844v63.746094c0 22.863281 18.601563 41.464843 41.464844 41.464843s41.460937-18.601562 41.460937-41.464843v-63.746094c0-22.863281-18.597656-41.464844-41.460937-41.464844zm0 0"/>
    <path d="m347.046875 361.539062c-47.949219 0-86.957031-37.917968-86.957031-84.53125 0-3.863281 3.132812-6.996093 7-6.996093 3.863281 0 6.996094 3.132812 6.996094 6.996093 0 38.894532 32.730468 70.539063 72.960937 70.539063s72.960937-31.644531 72.960937-70.539063c0-3.863281 3.132813-6.996093 6.996094-6.996093 3.863282 0 6.996094 3.132812 6.996094 6.996093 0 46.613282-39.007812 84.53125-86.953125 84.53125zm0 0"/>
    <path d="m347.046875 408.835938c-3.863281 0-6.996094-3.132813-6.996094-6.996094v-44.875c0-3.863282 3.132813-6.996094 6.996094-6.996094s6.996094 3.132812 6.996094 6.996094v44.875c0 3.863281-3.132813 6.996094-6.996094 6.996094zm0 0"/>
    <path d="m380.964844 408.835938h-67.84375c-3.863282 0-6.996094-3.132813-6.996094-6.996094 0-3.863282 3.132812-6.996094 6.996094-6.996094h67.84375c3.863281 0 6.996094 3.132812 6.996094 6.996094 0 3.863281-3.132813 6.996094-6.996094 6.996094zm0 0"/>
    <path d="m272.683594 312.550781h-225.707032c-25.902343 0-46.976562-21.070312-46.976562-46.972656v-218.496094c0-25.902343 21.074219-46.972656 46.976562-46.972656h259.863282c25.902344 0 46.972656 21.070313 46.972656 46.972656v113.128907c0 3.867187-3.132812 6.996093-6.996094 6.996093-3.863281 0-6.996094-3.128906-6.996094-6.996093v-113.128907c0-18.183593-14.796874-32.980469-32.980468-32.980469h-259.863282c-18.1875 0-32.984374 14.796876-32.984374 32.980469v218.496094c0 18.183594 14.796874 32.980469 32.984374 32.980469h225.707032c3.863281 0 6.996094 3.132812 6.996094 6.996094 0 3.863281-3.132813 6.996093-6.996094 6.996093zm0 0"/>
    <path d="m346.816406 95.402344h-339.820312c-3.863282 0-6.996094-3.132813-6.996094-6.996094s3.132812-6.996094 6.996094-6.996094h339.820312c3.863282 0 6.996094 3.132813 6.996094 6.996094s-3.132812 6.996094-6.996094 6.996094zm0 0"/>
    <path d="m100.324219 67.636719c-10.78125 0-19.554688-8.769531-19.554688-19.554688 0-10.78125 8.773438-19.554687 19.554688-19.554687s19.554687 8.773437 19.554687 19.554687c0 10.785157-8.773437 19.554688-19.554687 19.554688zm0-25.117188c-3.066407 0-5.5625 2.496094-5.5625 5.5625 0 3.066407 2.496093 5.5625 5.5625 5.5625 3.066406 0 5.5625-2.496093 5.5625-5.5625 0-3.066406-2.496094-5.5625-5.5625-5.5625zm0 0"/>
    <path d="m43.914062 67.460938c-10.785156 0-19.554687-8.773438-19.554687-19.554688s8.769531-19.554688 19.554687-19.554688c10.78125 0 19.554688 8.773438 19.554688 19.554688s-8.773438 19.554688-19.554688 19.554688zm0-25.117188c-3.066406 0-5.5625 2.496094-5.5625 5.5625s2.496094 5.5625 5.5625 5.5625c3.066407 0 5.5625-2.496094 5.5625-5.5625s-2.496093-5.5625-5.5625-5.5625zm0 0"/>
    <path d="m156.738281 67.816406c-10.78125 0-19.554687-8.773437-19.554687-19.554687 0-10.785157 8.773437-19.554688 19.554687-19.554688 10.785157 0 19.554688 8.769531 19.554688 19.554688 0 10.78125-8.773438 19.554687-19.554688 19.554687zm0-25.117187c-3.066406 0-5.5625 2.496093-5.5625 5.5625 0 3.066406 2.496094 5.5625 5.5625 5.5625 3.066407 0 5.5625-2.496094 5.5625-5.5625 0-3.070313-2.496093-5.5625-5.5625-5.5625zm0 0"/>
</svg>
